<svg width="197" height="129" viewBox="0 0 197 129" fill="none" xmlns="http://www.w3.org/2000/svg">
<g filter="url(#filter0_d_16_2)">
<path d="M88.2184 107.295L122.254 48.9735C128.77 37.8094 140.723 30.9451 153.65 30.9451H174.527C183.073 30.9451 190 24.0178 190 15.4725C190 6.9273 183.073 0 174.527 0H15.4725C6.92729 0 0 6.9273 0 15.4725C0 24.0178 6.9273 30.9451 15.4725 30.9451H18.6523C33.3144 30.9451 42.2438 47.0832 34.4552 59.5056L23.4007 77.1368C12.1363 95.1029 22.4349 118.777 43.2581 122.785L50.8727 124.25C65.6581 127.096 80.6292 120.299 88.2184 107.295Z" fill="black"/>
</g>
<defs>
<filter id="filter0_d_16_2" x="0" y="0" width="197" height="127.892" filterUnits="userSpaceOnUse" color-interpolation-filters="sRGB">
<feFlood flood-opacity="0" result="BackgroundImageFix"/>
<feColorMatrix in="SourceAlpha" type="matrix" values="0 0 0 0 0 0 0 0 0 0 0 0 0 0 0 0 0 0 127 0" result="hardAlpha"/>
<feOffset dx="7" dy="3"/>
<feComposite in2="hardAlpha" operator="out"/>
<feColorMatrix type="matrix" values="0 0 0 0 0.258824 0 0 0 0 0.772549 0 0 0 0 0.52549 0 0 0 1 0"/>
<feBlend mode="normal" in2="BackgroundImageFix" result="effect1_dropShadow_16_2"/>
<feBlend mode="normal" in="SourceGraphic" in2="effect1_dropShadow_16_2" result="shape"/>
</filter>
</defs>
</svg>
