<svg width="718" height="176" viewBox="0 0 718 176" fill="none" xmlns="http://www.w3.org/2000/svg">
<circle r="78.5" transform="matrix(-1 0 0 1 88 88)" stroke="#112D4E" stroke-width="19"/>
<mask id="mask0_14_41" style="mask-type:alpha" maskUnits="userSpaceOnUse" x="0" y="0" width="176" height="176">
<circle r="88" transform="matrix(-1 0 0 1 88 88)" fill="#D9D9D9"/>
</mask>
<g mask="url(#mask0_14_41)">
<path d="M48.4603 2H13.5242C-1.67697 2 -14 14.323 -14 29.5243C-14 44.7255 -1.67697 57.0485 13.5242 57.0485H47.1946C58.1333 57.0485 68.8845 51.3299 72.2929 40.9358C75.1076 32.3524 75.2246 24.9171 72.3656 16.6584C69.0101 6.96558 58.7175 2 48.4603 2Z" fill="#112D4E"/>
<path d="M26.2413 63.454H12C-2.35938 63.454 -14 75.0946 -14 89.454V122.786C-14 136.185 -3.81661 147.508 9.56406 148.208C36.3801 149.61 58.1651 148.186 89.1421 143.669C97.0385 142.517 104.613 137.912 106.691 130.208C107.949 125.543 107.823 121.417 106.319 116.969C104.171 110.616 98.0074 106.741 91.5008 105.117L71.8013 100.2C65.0551 98.5163 59.2644 94.2005 55.7229 88.2168L48.6172 76.2112C43.9372 68.3039 35.4298 63.454 26.2413 63.454Z" fill="#112D4E"/>
<circle cx="56.5493" cy="150" r="21" fill="#112D4E" stroke="white" stroke-width="10"/>
</g>
<path d="M265.298 15.012V27.89H247.814V81H231.74V27.89H214.256V15.012H265.298ZM215.102 127.912C215.102 121.395 216.512 115.598 219.332 110.522C222.152 105.383 226.069 101.404 231.082 98.584C236.158 95.7013 241.892 94.26 248.284 94.26C256.117 94.26 262.823 96.328 268.4 100.464C273.977 104.6 277.706 110.24 279.586 117.384H261.914C260.598 114.627 258.718 112.527 256.274 111.086C253.893 109.645 251.167 108.924 248.096 108.924C243.145 108.924 239.135 110.647 236.064 114.094C232.993 117.541 231.458 122.147 231.458 127.912C231.458 133.677 232.993 138.283 236.064 141.73C239.135 145.177 243.145 146.9 248.096 146.9C251.167 146.9 253.893 146.179 256.274 144.738C258.718 143.297 260.598 141.197 261.914 138.44H279.586C277.706 145.584 273.977 151.224 268.4 155.36C262.823 159.433 256.117 161.47 248.284 161.47C241.892 161.47 236.158 160.06 231.082 157.24C226.069 154.357 222.152 150.378 219.332 145.302C216.512 140.226 215.102 134.429 215.102 127.912Z" fill="#42C586"/>
<path d="M304.573 81.658C298.369 81.658 292.666 80.2167 287.465 77.334C282.326 74.4513 278.222 70.4407 275.151 65.302C272.143 60.1007 270.639 54.2727 270.639 47.818C270.639 41.3633 272.143 35.5667 275.151 30.428C278.222 25.2893 282.326 21.2787 287.465 18.396C292.666 15.5133 298.369 14.072 304.573 14.072C310.777 14.072 316.448 15.5133 321.587 18.396C326.788 21.2787 330.862 25.2893 333.807 30.428C336.815 35.5667 338.319 41.3633 338.319 47.818C338.319 54.2727 336.815 60.1007 333.807 65.302C330.799 70.4407 326.726 74.4513 321.587 77.334C316.448 80.2167 310.777 81.658 304.573 81.658ZM304.573 66.994C309.837 66.994 314.036 65.2393 317.169 61.73C320.365 58.2207 321.963 53.5833 321.963 47.818C321.963 41.99 320.365 37.3527 317.169 33.906C314.036 30.3967 309.837 28.642 304.573 28.642C299.246 28.642 294.985 30.3653 291.789 33.812C288.656 37.2587 287.089 41.9273 287.089 47.818C287.089 53.646 288.656 58.3147 291.789 61.824C294.985 65.2707 299.246 66.994 304.573 66.994ZM363.054 15.012V54.492C363.054 58.44 364.025 61.4793 365.968 63.61C367.91 65.7407 370.762 66.806 374.522 66.806C378.282 66.806 381.164 65.7407 383.17 63.61C385.175 61.4793 386.178 58.44 386.178 54.492V15.012H402.252V54.398C402.252 60.2887 400.998 65.2707 398.492 69.344C395.985 73.4173 392.601 76.488 388.34 78.556C384.141 80.624 379.441 81.658 374.24 81.658C369.038 81.658 364.37 80.6553 360.234 78.65C356.16 76.582 352.933 73.5113 350.552 69.438C348.17 65.302 346.98 60.2887 346.98 54.398V15.012H363.054ZM447.191 81L433.467 56.09H429.613V81H413.539V15.012H440.517C445.718 15.012 450.136 15.9207 453.771 17.738C457.468 19.5553 460.226 22.062 462.043 25.258C463.86 28.3913 464.769 31.9007 464.769 35.786C464.769 40.1727 463.516 44.0893 461.009 47.536C458.565 50.9827 454.93 53.4267 450.105 54.868L465.333 81H447.191ZM429.613 44.716H439.577C442.522 44.716 444.716 43.9953 446.157 42.554C447.661 41.1127 448.413 39.076 448.413 36.444C448.413 33.9373 447.661 31.9633 446.157 30.522C444.716 29.0807 442.522 28.36 439.577 28.36H429.613V44.716ZM330.508 149.344H305.88L301.932 161H285.106L308.982 95.012H327.594L351.47 161H334.456L330.508 149.344ZM326.372 136.936L318.194 112.778L310.11 136.936H326.372ZM392.388 161L378.664 136.09H374.81V161H358.736V95.012H385.714C390.916 95.012 395.334 95.9207 398.968 97.738C402.666 99.5553 405.423 102.062 407.24 105.258C409.058 108.391 409.966 111.901 409.966 115.786C409.966 120.173 408.713 124.089 406.206 127.536C403.762 130.983 400.128 133.427 395.302 134.868L410.53 161H392.388ZM374.81 124.716H384.774C387.72 124.716 389.913 123.995 391.354 122.554C392.858 121.113 393.61 119.076 393.61 116.444C393.61 113.937 392.858 111.963 391.354 110.522C389.913 109.081 387.72 108.36 384.774 108.36H374.81V124.716ZM461.135 149.344H436.507L432.559 161H415.733L439.609 95.012H458.221L482.097 161H465.083L461.135 149.344ZM456.999 136.936L448.821 112.778L440.737 136.936H456.999ZM551.309 95.012L527.903 161H507.787L484.381 95.012H501.489L517.845 144.832L534.295 95.012H551.309ZM599.105 149.344H574.477L570.529 161H553.703L577.579 95.012H596.191L620.067 161H603.053L599.105 149.344ZM594.969 136.936L586.791 112.778L578.707 136.936H594.969ZM686.366 161H670.292L643.408 120.298V161H627.334V95.012H643.408L670.292 135.902V95.012H686.366V161Z" fill="#112D4E"/>
</svg>
