<svg width="642" height="244" viewBox="0 0 642 244" fill="none" xmlns="http://www.w3.org/2000/svg">
<path d="M28.8 103.96C23.616 103.96 19.2 103.032 15.552 101.176C11.904 99.256 9.12 96.312 7.2 92.344C5.28 88.376 4.32 83.288 4.32 77.08C4.32 70.68 5.408 65.464 7.584 61.432C9.76 57.4 12.768 54.424 16.608 52.504C20.512 50.584 24.992 49.624 30.048 49.624C33.632 49.624 36.736 49.976 39.36 50.68C42.048 51.384 44.384 52.216 46.368 53.176L42.144 64.216C39.904 63.32 37.792 62.584 35.808 62.008C33.888 61.432 31.968 61.144 30.048 61.144C27.552 61.144 25.472 61.752 23.808 62.968C22.144 64.12 20.896 65.88 20.064 68.248C19.296 70.552 18.912 73.464 18.912 76.984C18.912 80.44 19.328 83.32 20.16 85.624C21.056 87.864 22.336 89.56 24 90.712C25.664 91.8 27.68 92.344 30.048 92.344C33.056 92.344 35.712 91.96 38.016 91.192C40.32 90.36 42.56 89.24 44.736 87.832V100.024C42.56 101.432 40.256 102.424 37.824 103C35.456 103.64 32.448 103.96 28.8 103.96ZM83.1045 49.528C90.1445 49.528 95.5205 51.064 99.2325 54.136C103.009 57.144 104.897 61.784 104.897 68.056V103H94.9125L92.1285 95.896H91.7445C90.2725 97.752 88.7365 99.288 87.1365 100.504C85.6005 101.72 83.8085 102.584 81.7605 103.096C79.7765 103.672 77.3125 103.96 74.3685 103.96C71.2965 103.96 68.5125 103.384 66.0165 102.232C63.5845 101.016 61.6645 99.192 60.2565 96.76C58.8485 94.264 58.1445 91.128 58.1445 87.352C58.1445 81.784 60.0965 77.688 64.0005 75.064C67.9045 72.376 73.7605 70.904 81.5685 70.648L90.6885 70.36V68.056C90.6885 65.304 89.9525 63.288 88.4805 62.008C87.0725 60.728 85.0885 60.088 82.5285 60.088C79.9685 60.088 77.4725 60.472 75.0405 61.24C72.6085 61.944 70.1765 62.84 67.7445 63.928L63.0405 54.232C65.8565 52.76 68.9605 51.608 72.3525 50.776C75.8085 49.944 79.3925 49.528 83.1045 49.528ZM85.1205 78.904C80.5125 79.032 77.3125 79.864 75.5205 81.4C73.7285 82.936 72.8325 84.952 72.8325 87.448C72.8325 89.624 73.4725 91.192 74.7525 92.152C76.0325 93.048 77.6965 93.496 79.7445 93.496C82.8165 93.496 85.4085 92.6 87.5205 90.808C89.6325 88.952 90.6885 86.36 90.6885 83.032V78.712L85.1205 78.904ZM153.618 49.624C154.322 49.624 155.154 49.656 156.114 49.72C157.074 49.784 157.842 49.88 158.418 50.008L157.362 63.448C156.914 63.32 156.242 63.224 155.346 63.16C154.514 63.032 153.778 62.968 153.138 62.968C151.282 62.968 149.49 63.224 147.762 63.736C146.034 64.184 144.466 64.92 143.058 65.944C141.714 66.968 140.626 68.344 139.794 70.072C139.026 71.736 138.642 73.816 138.642 76.312V103H124.338V50.584H135.186L137.298 59.416H137.97C138.994 57.624 140.274 55.992 141.81 54.52C143.346 53.048 145.106 51.864 147.09 50.968C149.138 50.072 151.314 49.624 153.618 49.624ZM192.361 49.528C199.401 49.528 204.777 51.064 208.489 54.136C212.265 57.144 214.153 61.784 214.153 68.056V103H204.169L201.385 95.896H201.001C199.529 97.752 197.993 99.288 196.393 100.504C194.857 101.72 193.065 102.584 191.017 103.096C189.033 103.672 186.569 103.96 183.625 103.96C180.553 103.96 177.769 103.384 175.273 102.232C172.841 101.016 170.921 99.192 169.513 96.76C168.105 94.264 167.401 91.128 167.401 87.352C167.401 81.784 169.353 77.688 173.257 75.064C177.161 72.376 183.017 70.904 190.825 70.648L199.945 70.36V68.056C199.945 65.304 199.209 63.288 197.737 62.008C196.329 60.728 194.345 60.088 191.785 60.088C189.225 60.088 186.729 60.472 184.297 61.24C181.865 61.944 179.433 62.84 177.001 63.928L172.297 54.232C175.113 52.76 178.217 51.608 181.609 50.776C185.065 49.944 188.649 49.528 192.361 49.528ZM194.377 78.904C189.769 79.032 186.569 79.864 184.777 81.4C182.985 82.936 182.089 84.952 182.089 87.448C182.089 89.624 182.729 91.192 184.009 92.152C185.289 93.048 186.953 93.496 189.001 93.496C192.073 93.496 194.665 92.6 196.777 90.808C198.889 88.952 199.945 86.36 199.945 83.032V78.712L194.377 78.904ZM246.074 103L226.106 50.584H241.082L251.162 80.44C251.546 81.592 251.866 82.808 252.122 84.088C252.442 85.368 252.666 86.616 252.794 87.832C252.986 89.048 253.114 90.168 253.178 91.192H253.562C253.626 90.104 253.754 88.952 253.946 87.736C254.138 86.52 254.362 85.304 254.618 84.088C254.938 82.808 255.29 81.592 255.674 80.44L265.754 50.584H280.73L260.762 103H246.074ZM314.555 49.528C321.595 49.528 326.971 51.064 330.683 54.136C334.459 57.144 336.347 61.784 336.347 68.056V103H326.363L323.579 95.896H323.195C321.723 97.752 320.187 99.288 318.587 100.504C317.051 101.72 315.259 102.584 313.211 103.096C311.227 103.672 308.763 103.96 305.819 103.96C302.747 103.96 299.963 103.384 297.467 102.232C295.035 101.016 293.115 99.192 291.707 96.76C290.299 94.264 289.595 91.128 289.595 87.352C289.595 81.784 291.547 77.688 295.451 75.064C299.355 72.376 305.211 70.904 313.019 70.648L322.139 70.36V68.056C322.139 65.304 321.403 63.288 319.931 62.008C318.523 60.728 316.539 60.088 313.979 60.088C311.419 60.088 308.923 60.472 306.491 61.24C304.059 61.944 301.627 62.84 299.195 63.928L294.491 54.232C297.307 52.76 300.411 51.608 303.803 50.776C307.259 49.944 310.843 49.528 314.555 49.528ZM316.571 78.904C311.963 79.032 308.763 79.864 306.971 81.4C305.179 82.936 304.283 84.952 304.283 87.448C304.283 89.624 304.923 91.192 306.203 92.152C307.483 93.048 309.147 93.496 311.195 93.496C314.267 93.496 316.859 92.6 318.971 90.808C321.083 88.952 322.139 86.36 322.139 83.032V78.712L316.571 78.904ZM385.548 49.624C391.18 49.624 395.692 51.16 399.084 54.232C402.476 57.24 404.172 62.104 404.172 68.824V103H389.868V72.376C389.868 68.6 389.196 65.784 387.852 63.928C386.508 62.008 384.364 61.048 381.42 61.048C377.068 61.048 374.092 62.552 372.492 65.56C370.892 68.504 370.092 72.76 370.092 78.328V103H355.788V50.584H366.732L368.652 57.304H369.42C370.572 55.512 371.98 54.072 373.644 52.984C375.308 51.832 377.164 51 379.212 50.488C381.26 49.912 383.372 49.624 385.548 49.624Z" fill="#64798A"/>
<path d="M447.01 91.096C448.674 91.096 450.21 90.936 451.618 90.616C453.026 90.296 454.466 89.88 455.938 89.368V101.272C454.21 102.04 452.226 102.68 449.986 103.192C447.746 103.704 445.09 103.96 442.018 103.96C438.754 103.96 435.842 103.448 433.282 102.424C430.786 101.336 428.802 99.512 427.33 96.952C425.922 94.328 425.218 90.712 425.218 86.104V62.392H418.498V55.672L426.562 50.488L430.978 39.352H441.346V50.296H455.362V62.392H441.346V85.528C441.346 87.384 441.858 88.792 442.882 89.752C443.906 90.648 445.282 91.096 447.01 91.096ZM519.805 76.504C519.805 80.92 519.197 84.824 517.981 88.216C516.829 91.608 515.101 94.488 512.797 96.856C510.557 99.224 507.837 101.016 504.637 102.232C501.501 103.384 497.885 103.96 493.789 103.96C490.077 103.96 486.621 103.384 483.421 102.232C480.285 101.016 477.565 99.256 475.261 96.952C473.021 94.584 471.261 91.704 469.981 88.312C468.701 84.856 468.061 80.92 468.061 76.504C468.061 70.68 469.085 65.752 471.133 61.72C473.245 57.688 476.253 54.616 480.157 52.504C484.061 50.392 488.701 49.336 494.077 49.336C499.133 49.336 503.581 50.392 507.421 52.504C511.261 54.616 514.269 57.688 516.445 61.72C518.685 65.752 519.805 70.68 519.805 76.504ZM484.477 76.504C484.477 79.768 484.797 82.52 485.437 84.76C486.077 87 487.101 88.696 488.509 89.848C489.917 90.936 491.741 91.48 493.981 91.48C496.285 91.48 498.109 90.936 499.453 89.848C500.797 88.696 501.789 87 502.429 84.76C503.069 82.52 503.389 79.768 503.389 76.504C503.389 73.24 503.069 70.52 502.429 68.344C501.789 66.168 500.765 64.536 499.357 63.448C498.013 62.36 496.189 61.816 493.885 61.816C490.621 61.816 488.221 63.064 486.685 65.56C485.213 67.992 484.477 71.64 484.477 76.504ZM585.561 50.296V103H573.273L571.161 96.28H570.201C569.113 98.072 567.705 99.544 565.977 100.696C564.313 101.784 562.457 102.584 560.409 103.096C558.425 103.672 556.345 103.96 554.169 103.96C550.585 103.96 547.385 103.288 544.569 101.944C541.753 100.6 539.545 98.52 537.945 95.704C536.345 92.824 535.545 89.144 535.545 84.664V50.296H551.769V80.152C551.769 83.736 552.345 86.456 553.497 88.312C554.713 90.168 556.633 91.096 559.257 91.096C561.881 91.096 563.929 90.456 565.401 89.176C566.873 87.896 567.897 86.008 568.473 83.512C569.049 80.952 569.337 77.88 569.337 74.296V50.296H585.561ZM634.817 49.336C635.649 49.336 636.577 49.4 637.601 49.528C638.625 49.592 639.425 49.688 640.001 49.816L638.657 64.984C638.081 64.856 637.345 64.76 636.449 64.696C635.553 64.568 634.561 64.504 633.473 64.504C631.937 64.504 630.401 64.696 628.865 65.08C627.329 65.4 625.921 66.008 624.641 66.904C623.361 67.736 622.337 68.952 621.569 70.552C620.801 72.088 620.417 74.104 620.417 76.6V103H604.193V50.296H616.385L618.881 58.936H619.553C620.577 57.144 621.857 55.544 623.393 54.136C624.929 52.664 626.657 51.512 628.577 50.68C630.561 49.784 632.641 49.336 634.817 49.336Z" fill="#E56353"/>
<path d="M236 154C308.586 157.325 339.774 175.202 391 214.5" stroke="black" stroke-width="5" stroke-dasharray="10 10"/>
<path d="M383.426 147.201C315.642 125.424 285.701 166.993 226 201.073" stroke="black" stroke-width="5" stroke-dasharray="10 10"/>
<circle cx="404.5" cy="173.5" r="44" fill="#E56353" stroke="white" stroke-width="5"/>
<circle cx="221.5" cy="173.5" r="29" fill="#E56353" stroke="white" stroke-width="5"/>
<path d="M443 189C431.621 211.79 422.476 223.596 404.5 244C384.323 221.682 375.872 209.527 366 189H404.5H443Z" fill="#E56353"/>
</svg>
