<svg width="176" height="176" viewBox="0 0 176 176" fill="none" xmlns="http://www.w3.org/2000/svg">
<circle r="78.5" transform="matrix(-1 0 0 1 88 88)" stroke="#42C586" stroke-width="19"/>
<mask id="mask0_108_2" style="mask-type:alpha" maskUnits="userSpaceOnUse" x="0" y="0" width="176" height="176">
<circle r="88" transform="matrix(-1 0 0 1 88 88)" fill="#D9D9D9"/>
</mask>
<g mask="url(#mask0_108_2)">
<path d="M48.4603 2H13.5242C-1.67697 2 -14 14.323 -14 29.5243C-14 44.7255 -1.67697 57.0485 13.5242 57.0485H47.1946C58.1333 57.0485 68.8845 51.3299 72.2929 40.9358C75.1076 32.3524 75.2246 24.9171 72.3656 16.6584C69.0101 6.96558 58.7175 2 48.4603 2Z" fill="#42C586"/>
<path d="M26.2413 63.4541H12C-2.35938 63.4541 -14 75.0947 -14 89.4541V122.786C-14 136.185 -3.81661 147.508 9.56406 148.208C36.3801 149.61 58.1651 148.186 89.1421 143.669C97.0385 142.517 104.613 137.913 106.691 130.208C107.949 125.543 107.823 121.417 106.319 116.969C104.171 110.616 98.0074 106.741 91.5008 105.117L71.8013 100.2C65.0551 98.5165 59.2644 94.2006 55.7229 88.217L48.6172 76.2113C43.9372 68.304 35.4298 63.4541 26.2413 63.4541Z" fill="#42C586"/>
<circle cx="56.5493" cy="150" r="21" fill="#42C586" stroke="white" stroke-width="10"/>
</g>
</svg>
