<svg width="179" height="162" viewBox="0 0 179 162" fill="none" xmlns="http://www.w3.org/2000/svg">
<path fill-rule="evenodd" clip-rule="evenodd" d="M0 105.129C9.24756 119.193 22.3025 129.729 37.8599 140.623C80.523 170.496 123.045 163.25 139.609 147.87C139.609 147.87 144.674 142.195 155.581 145.379C163.167 147.593 173.23 155.62 176.868 159.369C177.648 156.007 178.06 152.504 178.06 148.905C178.06 135.987 172.752 124.31 164.199 115.934C177.191 79.419 156.961 30.8743 113.427 0C132.364 28.799 138.611 60.5197 125.411 85.6073C95.8954 66.4696 37.8599 15.8029 37.8599 15.8029C37.8599 15.8029 65.0718 57.2123 85.7764 77.3254C65.0718 64.9026 53.8321 56.0292 17.7468 25.8594C42.4613 66.4286 84.7014 103.22 99.9739 115.934C53.8321 140.623 0 105.129 0 105.129V105.129Z" fill="#42C586"/>
</svg>
